<svg width="205" height="70" viewBox="0 0 205 70" fill="none" xmlns="http://www.w3.org/2000/svg">
<path d="M146.368 5.98648L136.491 9.97754V19.2568H128.309V26.9396H136.491V56.4734C136.491 66.1517 137.987 69.145 150.359 69.145H154.55V60.1651H150.359C147.965 60.1651 146.368 59.4667 146.368 56.4734V26.9396H154.55V19.157H146.368V5.98648Z" fill="white"/>
<path d="M76.5246 0H66.6467V69.1452H76.5246V0Z" fill="white"/>
<path d="M104.961 19.1578C91.8903 19.058 80.7153 27.3395 80.7153 44.4013C80.7153 61.4631 91.8903 69.8443 104.961 69.7445C114.839 69.6448 124.018 64.9553 128.009 55.3767L119.429 51.9843C116.735 58.4698 110.948 61.3633 104.961 61.4631C97.8769 61.5628 91.6908 57.472 90.3937 48.2926H128.808C129.007 46.9955 129.107 45.6984 129.107 44.3015C129.107 27.3395 117.932 19.2576 104.961 19.1578ZM90.3937 40.2107C91.8903 31.2308 97.9767 27.2397 104.961 27.3395C111.945 27.4393 118.032 31.2308 119.528 40.2107H90.3937Z" fill="white"/>
<path d="M178.397 19.4563C168.718 19.3565 159.14 23.148 157.444 34.7221L166.423 36.4183C167.721 28.6357 173.408 27.5382 178.397 27.5382C183.785 27.5382 189.572 30.0326 189.572 36.0192C189.572 45.2984 155.548 32.2277 155.548 55.0765C155.548 71.9387 181.689 75.0318 189.572 60.5642V69.0452H199.649V38.8129C199.549 24.046 189.073 19.556 178.397 19.4563ZM189.572 47.7928C189.572 67.0497 166.024 67.5486 166.024 55.0765C166.024 43.0035 183.286 47.4935 189.572 43.3029V47.7928Z" fill="white"/>
<path d="M52.9814 44.1014L36.2189 0.000185013H26.341L10.9754 40.4097L7.98213 48.1923L0 69.2451H10.8756L17.2613 51.5847C18.8578 52.0836 20.8533 52.5824 23.5473 52.5824C28.4363 52.5824 31.1303 51.1856 33.2256 50.1878C34.9218 49.2898 36.2189 48.6912 39.0126 48.6912C41.8064 48.6912 43.1035 49.2898 44.7997 50.1878L44.8995 50.4871L51.6843 69.3449H62.5599L54.5778 48.292L52.9814 44.1014ZM39.0126 40.2101C35.1214 40.2101 32.6269 41.0084 30.7312 42.0061C30.0327 42.4052 30.0327 42.4052 29.4341 42.7046C27.6381 43.6025 26.4408 44.2012 23.647 44.2012C22.1504 44.2012 21.1526 44.0017 20.2546 43.8021L20.8533 42.1059L31.4296 12.8714L41.4073 40.4097C40.6091 40.3099 39.8109 40.2101 39.0126 40.2101Z" fill="white"/>
<path d="M200.051 4.98901C197.576 4.98901 195.562 7.00373 195.562 9.47896C195.562 11.9542 197.576 13.9689 200.051 13.9689C202.527 13.9689 204.541 11.9542 204.541 9.47896C204.541 7.00373 202.527 4.98901 200.051 4.98901ZM200.051 13.1918C198.008 13.1918 196.339 11.5225 196.339 9.47896C196.339 7.43546 198.008 5.76612 200.051 5.76612C202.095 5.76612 203.764 7.43546 203.764 9.47896C203.764 11.5225 202.095 13.1918 200.051 13.1918ZM201.922 8.64429C201.922 7.60815 201.26 7.00373 200.138 7.00373H198.353V11.9254H199.044V10.2561H200.138H200.311L201.232 11.9254H201.98L200.944 10.1409C201.577 9.91068 201.922 9.39261 201.922 8.64429ZM199.044 7.57937H200.138C200.857 7.57937 201.232 8.01109 201.232 8.64429C201.232 9.2487 200.857 9.68043 200.138 9.68043H199.044V7.57937Z" fill="white"/>
</svg>
