<svg width="63" height="70" viewBox="0 0 63 70" fill="none" xmlns="http://www.w3.org/2000/svg">
<path d="M52.9814 44.1014L36.2189 0.000185013H26.341L10.9754 40.4097L7.98213 48.1923L0 69.2451H10.8756L17.2613 51.5847C18.8578 52.0836 20.8533 52.5824 23.5473 52.5824C28.4363 52.5824 31.1303 51.1856 33.2256 50.1878C34.9218 49.2898 36.2189 48.6912 39.0126 48.6912C41.8064 48.6912 43.1035 49.2898 44.7997 50.1878L44.8995 50.4871L51.6843 69.3449H62.5599L54.5778 48.292L52.9814 44.1014ZM39.0126 40.2101C35.1214 40.2101 32.6269 41.0084 30.7312 42.0061C30.0327 42.4052 30.0327 42.4052 29.4341 42.7046C27.6381 43.6025 26.4408 44.2012 23.647 44.2012C22.1504 44.2012 21.1526 44.0017 20.2546 43.8021L20.8533 42.1059L31.4296 12.8714L41.4073 40.4097C40.6091 40.3099 39.8109 40.2101 39.0126 40.2101Z" fill="black"/>
</svg>
